<svg xmlns="http://www.w3.org/2000/svg" viewBox="0 0 785.01 736.15"><defs><style>.cls-1{fill:#fff;}.cls-2{fill:#ed1b35;}.cls-3{fill:#6acce1;}.cls-4{fill:#e0e1e2;}.cls-5{fill:#d1d3d4;}.cls-6{fill:#f05133;}.cls-7{fill:#6dcde6;}.cls-8{fill:#d2472c;}</style></defs><g id="T"><polygon class="cls-1" points="204.42 364.65 57.38 280.65 392.5 89.2 727.62 280.65 580.59 364.65 477.78 305.92 477.78 687.44 392.5 736.15 307.23 687.44 307.23 305.92 204.42 364.65"/></g><g id="A"><polygon class="cls-2" points="64.53 577.63 0 540.17 255.82 394.02 255.82 688.65 191.29 651.19 191.29 505.21 64.53 577.63"/></g><g id="F"><polygon class="cls-3" points="657.09 614.41 593.72 577.84 593.72 505.21 720.47 577.63 785 540.17 529.18 394.02 529.18 688.65 657.09 614.41"/></g><g id="Hat"><path class="cls-4" d="M272.4,135.88c4.86-8.6,17-7.48,32.84-10,12.13-1.92,24.62-9.82,29-15.77-.55,3.4-2.31,10.21-2.86,13.61a49.38,49.38,0,0,1,16.88-11.37c14.72-5.86,24.36-.83,36.9-7.12,4.4-2.21,10.29-6.38,15.67-15l1.55,13.93C411.32,92,419.93,88,426.41,86.7c12.42-2.53,20.58,4.16,31.4-.35,7.58-3.15,12.05-10,14.69-15.4q.28,8.33.58,16.65c5.6-.71,13-.67,17.73,3.85,6,5.79,3.25,14.59,6.4,28a65.49,65.49,0,0,0,12.21,25.05l-14.81-5.31c.32,5.79-.15,14.23-5.68,19.65-8.31,8.16-21.26,2.82-39.61,5.82-8.7,1.43-21.29,5.16-35.75,16.07q1.19-6,2.36-12c-11.45,10.72-21.53,13.92-28.88,14.74-11.41,1.29-17.82-3-28.63,0-9.49,2.62-16.09,9.1-20.27,14.35q.84-6.14,1.7-12.28a85.29,85.29,0,0,1-34.4,8.18c-11.38.27-17.66,1.36-23.21-2.7-6-4.39-5.54-9.94-13.09-20.23a67.86,67.86,0,0,0-12-12.6L270.28,161C267,151.26,270.2,139.77,272.4,135.88Z" transform="translate(-39.5 -17.95)"/><path class="cls-5" d="M403.27,164.29c2.17-4.32,3.77-7.57,6.08-11.45-5,2.64-12.13,6.83-22.46,9-14.82,3.15-33.85.83-43.15,2.87-21.87,4.78-22.64,18.37-45.58,18.27-6.41,0-15.43-1.53-26.34-8.35,4.87,7.83,5.24,12.49,10.42,16.28,5.55,4.06,11.83,3,23.21,2.7a85.29,85.29,0,0,0,34.4-8.18q-.86,6.15-1.7,12.28c4.18-5.25,10.78-11.73,20.27-14.35,10.81-3,17.22,1.3,28.63,0,7.35-.82,17.43-4,28.88-14.74q-1.17,6-2.36,12c14.46-10.91,27.05-14.64,35.75-16.07,18.35-3,31.3,2.34,39.61-5.82,5.53-5.42,6-13.86,5.68-19.65l14.81,5.31a65.49,65.49,0,0,1-12.21-25.05c-3.15-13.37-.36-22.17-6.4-28A15.69,15.69,0,0,0,482,87.53s6,20.46,2.49,31C474.91,147.44,403.27,164.29,403.27,164.29Z" transform="translate(-39.5 -17.95)"/><path class="cls-6" d="M448.54,50c-11.45-9.25-119-35.39-131.67-31.7-13.65,4-77.28,76.18-84.55,94.23C226.11,128,246,174.42,244.87,225.39c7.38,0,13.43-8.92,20.81-8.92,11.56-42.61,15.89-46.46,27.45-89.06,3.71-.42,7.77-.84,12.11-1.52,12.13-1.92,24.62-9.82,29-15.77-.55,3.4-2.31,10.21-2.86,13.61a49.38,49.38,0,0,1,16.88-11.37c14.72-5.86,24.36-.83,36.9-7.12,4.4-2.21,10.29-6.38,15.67-15q.76,7,1.55,13.93C411.32,92,419.93,88,426.41,86.7c12.42-2.53,20.58,4.16,31.4-.35A22.67,22.67,0,0,0,463.37,83C458.85,71,457.91,57.58,448.54,50Z" transform="translate(-39.5 -17.95)"/><path class="cls-7" d="M230.34,256.43" transform="translate(-39.5 -17.95)"/><path class="cls-7" d="M301.35,236.29" transform="translate(-39.5 -17.95)"/><path class="cls-7" d="M236.62,204.42" transform="translate(-39.5 -17.95)"/><path class="cls-4" d="M253.77,251.29c16.61,7.08,30.59-7.94,32.59-15.95a31.88,31.88,0,0,1-6.5,1.16c4.05-24.23-25.49-39.43-41.39-23.75-9.58,9.46-10.29,28.23-1.61,36.58.2-2.72.39-5.45.58-8.17.85,8.81,10.94,19.6,19.9,21.14A20.8,20.8,0,0,1,253.77,251.29Z" transform="translate(-39.5 -17.95)"/><path class="cls-5" d="M268.07,210.5a29.68,29.68,0,0,1,6.86,17.78c.08,3.33.21,8.71-3.3,12.47-4.41,4.71-13.08,5.29-21.47,1.4l1.81,5.37a27.18,27.18,0,0,1-18.32-27.81c-4.64,9.88-3.66,23,3.21,29.62.2-2.72.39-5.45.58-8.17.85,8.81,10.94,19.6,19.9,21.14a20.8,20.8,0,0,1-3.57-11c16.61,7.08,30.59-7.94,32.59-15.95a31.88,31.88,0,0,1-6.5,1.16A25.28,25.28,0,0,0,268.07,210.5Z" transform="translate(-39.5 -17.95)"/><path class="cls-8" d="M459.27,69.62a171.75,171.75,0,0,0-75.85,9.46,168.24,168.24,0,0,0-40.62,21.63,68.5,68.5,0,0,0,3-17.51A67.76,67.76,0,0,0,344.45,67a87.44,87.44,0,0,1-13.26,22c-16.72,20.19-38.23,27.38-48,30-14.61,28.41-14.54,65.17-26.5,87.59a26.52,26.52,0,0,1,10.74,3.6c10.28-36.75,14.74-42.33,25.7-82.71,3.71-.42,7.77-.84,12.11-1.52,12.13-1.92,24.62-9.82,29-15.77-.55,3.4-2.31,10.21-2.86,13.61a49.38,49.38,0,0,1,16.88-11.37c14.72-5.86,24.36-.83,36.9-7.12,4.4-2.21,10.29-6.38,15.67-15q.76,7,1.55,13.93C411.32,92,419.93,88,426.41,86.7c12.42-2.53,20.58,4.16,31.4-.35A22.67,22.67,0,0,0,463.37,83C461.72,78.61,460.55,74,459.27,69.62Z" transform="translate(-39.5 -17.95)"/></g></svg>